<svg width="242" height="276" viewBox="0 0 242 276" fill="none" xmlns="http://www.w3.org/2000/svg">
<path d="M114.6 2.0998C118.7 -0.300195 123.7 -0.300195 127.8 2.0998L235.5 64.2998C239.6 66.6998 242 70.9998 242 75.5998V199.8C242 204.4 239.6 208.7 235.5 211.1L127.8 273.3C123.7 275.7 118.7 275.7 114.6 273.3L7 211.2C2.9 208.8 0.5 204.5 0.5 199.9V75.6998C0.5 71.0998 2.9 66.7998 7 64.3998L114.6 2.0998Z" fill="#E00000"/>
<path d="M105.6 177.3C105.4 177.3 105.2 177.1 105.2 177.1C105.2 177.1 105.4 177.1 105.6 177.3Z" fill="white"/>
<path d="M146.5 187C146.5 187.2 146.7 187.4 146.7 187.6C146.6 187.4 146.6 187.2 146.5 187Z" fill="white"/>
<path d="M116.6 184V202.6C120.1 204.1 122.7 204.8 124.6 205.6C126.5 206.3 127.9 207.1 127.9 207.1L128.1 188.5C125.7 186.6 121.2 185.3 116.6 184Z" fill="white"/>
<path d="M128.1 71.0998C128.1 70.8998 128.1 70.8998 128.1 70.6998L122.3 66.7998L116.7 70.4998C116.7 70.6998 116.7 70.8998 116.7 71.0998V132.8C120.4 133.4 124.3 133.7 128 134.5V71.0998H128.1Z" fill="white"/>
<path d="M147.9 108.1C142.5 107.2 136.2 110 135.5 113.7C134.9 116.1 135.3 117 136.2 117.4C137.1 117.8 141.6 112.6 143.1 115C144.6 117.6 137 119.8 137 119.8C137 119.8 138.3 121.7 140 121.7C141.7 121.9 143.3 120.8 144.6 119.8C145.9 119.1 148.1 118.3 148.1 118.3C149.6 118.3 153.9 122.2 149.8 128.1C147.6 131.4 142 133.5 130.1 134.8C136 136.1 141.4 138 145.7 141.1C152.6 138.7 158 135 159.6 127.7C162.6 114.8 153.7 109 147.9 108.1Z" fill="white"/>
<path d="M114.3 213.4C112.6 212.8 111 212.3 109.5 211.7C105.6 214.5 102.4 218 101.3 223.4C100.4 227.9 101.5 230.5 102 230.5C102.6 230.5 102.2 228.8 103.3 225.3C104.8 220.5 109.1 217.3 114.3 214.7C114.9 214.5 115.2 214.1 115.8 214C115.3 213.7 114.9 213.5 114.3 213.4Z" fill="white"/>
<path d="M147.8 192C147.6 191.3 147.6 190.5 147.4 189.8C147.2 189.1 147 188.3 146.7 187.6C146.7 187.4 146.5 187.2 146.5 187C144.8 183.1 141.1 180.1 136.8 177.7C134 176.2 130.9 174.9 127.9 173.8C126.8 173.4 125.7 173.1 124.7 172.7C123.7 172.3 122.7 172.1 121.7 171.8C119.8 171.2 118.2 170.9 116.5 170.3C108.9 168.1 102.9 165.3 103.7 159.3C104.4 152.6 107.6 149.1 114.7 147C114.9 147 115.3 146.8 115.4 146.8C115.2 146.8 114.8 146.6 114.7 146.6C108.2 145.3 103.7 144.7 99.2999 143.8C95.5999 147.1 92.9999 152 92.5999 158.8C92.1999 168.6 97.5999 173.5 105 176.6H105.2C105.4 176.6 105.6 176.8 105.6 176.8C105.8 177 106.2 177 106.3 177.2C109.5 178.3 113 179.2 116.5 180.4C118.4 181 120 181.3 121.7 181.9C122.4 182.1 123.2 182.5 123.9 182.6C125.2 183 126.5 183.5 127.8 183.9C132.4 185.8 136.5 188.2 137.5 192.6C138.6 197.8 136.9 201.9 131 205.8C130.4 206.2 129.7 206.7 129 206.9C129.9 207.3 130.9 208 131.6 208.8C133.1 209.9 134.9 211 134.9 211C143.6 207.7 148.5 201.5 147.9 192.6C147.9 192.6 147.9 192.4 147.8 192Z" fill="white"/>
<path d="M142 142.2C141.4 141.8 141.1 141.5 140.5 141.3C136.8 139.3 132.5 138 127.9 137C125.9 136.6 123.6 136.3 121.4 135.9C120.5 135.7 119.4 135.5 118.4 135.5C117.7 135.5 117.1 135.3 116.4 135.3C116 135.3 115.5 135.1 115.1 135.1C110.8 134.7 107.3 134.2 104.5 133.4C101.3 132.8 98.5999 131.9 96.6999 130.8C95.3999 130.1 94.2999 129.1 93.4999 128.2C89.3999 122.3 93.6999 118.4 95.1999 118.4C95.1999 118.4 97.3999 119 98.6999 119.9C99.9999 120.6 101.5 121.8 103.3 121.8C105 121.6 106.3 119.9 106.3 119.9C106.3 119.9 98.6999 117.7 100.2 115.1C101.5 112.7 106.1 117.9 107.1 117.5C108.1 117.1 108.4 116.2 107.8 113.8C107.1 110.3 100.7 107.5 95.3999 108.2C89.5999 109.1 80.6999 114.9 83.6999 128.1C84.5999 132.6 87.1999 135.7 90.3999 137.9C90.7999 138.3 93.8999 139.9 93.8999 139.9C93.8999 139.9 94.0999 139.9 94.0999 140.1C95.1999 140.7 96.4999 141 97.5999 141.6C98.6999 142 99.9999 142.2 101.5 142.5C105.8 143.2 111 144 116.2 144.9C118.4 145.3 120.8 145.8 122.9 146.4C124.6 146.8 126.1 147.1 127.5 147.7C134.6 149.9 139.9 153.6 139.6 160.9C139.6 166.1 135.5 169.4 128.6 171.5C132.7 173 135.8 174.5 139.6 176.7C146.1 173.5 150.9 168.7 150.6 159.4C150.7 151 147 145.8 142 142.2Z" fill="white"/>
<path d="M140 224.1C138.9 219.3 136.3 215.7 132.8 213.1C131.5 212.4 130.2 211.4 128.7 210.7C128.5 210.5 128.3 210.5 128.1 210.3C126.1 209.2 123.8 208.3 121.8 207.3C120.1 206.6 118.6 206 117.3 205.4C117.1 205.4 116.9 205.2 116.7 205.2C109.5 202.4 105.2 198 106.1 192.6C106.8 188.1 110.6 185.5 115.6 183.5C110.4 182.2 105.8 181.1 103 179.6C99.0999 182.6 96.2999 186.8 95.7999 192.8C95.1999 199.9 99.8999 203.9 106.2 206.9C108.2 208 110.8 208.9 113.4 209.9C114 210.1 114.3 210.3 114.9 210.5C115.5 210.7 116.2 210.9 116.8 211.2C118.5 211.8 120.3 212.5 122 213.1C124.2 213.8 126.3 214.8 128.1 215.9C132.9 218.3 136.6 221.5 137.9 225.9C139 229.4 138.6 231.1 139.2 231.1C139.8 231.2 140.9 228.6 140 224.1Z" fill="white"/>
<path d="M147.4 189.8C147.6 190.5 147.8 191.3 147.8 192C147.6 190.3 147.2 188.8 146.7 187.5C147 188.3 147.2 189 147.4 189.8Z" fill="white"/>
<path d="M105.6 177.3C105.8 177.5 106.2 177.5 106.3 177.7C106.2 177.5 105.8 177.3 105.6 177.3Z" fill="white"/>
<path d="M117.3 147.2C117.1 147.2 116.7 147 116.6 147V147.4V167.3C119.4 168 123.1 169 127 170.3C127.4 170.5 127.6 170.5 127.9 170.7V170.1V149.9C124.7 148.9 121 148 117.3 147.2Z" fill="white"/>
<path d="M122.4 76.4002C127.702 76.4002 132 72.1021 132 66.8002C132 61.4983 127.702 57.2002 122.4 57.2002C117.098 57.2002 112.8 61.4983 112.8 66.8002C112.8 72.1021 117.098 76.4002 122.4 76.4002Z" fill="white"/>
<path fill-rule="evenodd" clip-rule="evenodd" d="M75.1001 83.7997C76.0001 81.2997 86.6001 83.4997 94.0001 83.4997C94.9001 83.4997 96.2001 83.4997 97.4001 83.1997C98.0001 82.8997 99.6001 82.5997 101.1 81.9997C102.3 81.3997 103 81.0997 104.2 80.4997C104.5 80.4997 104.8 80.4997 105.4 80.1997C106.6 80.1997 107.3 79.8997 107.9 80.1997C108.2 80.1997 108.8 80.4997 109.4 81.0997C109.7 81.6997 109.7 81.9997 110 82.9997C110 83.2997 111.5 85.1997 112.8 85.1997C115 85.1997 114.3 89.1997 114.3 89.7997C114.3 91.9997 114.3 91.9997 114.6 97.8997C114.9 103.5 102.8 101.3 100.7 98.4997C98.5001 95.6997 97.9001 96.2997 97.6001 96.5997C96.7001 97.4997 96.1001 97.7997 94.8001 97.7997C93.5001 97.7997 92.0001 98.0997 91.4001 97.1997C90.5001 96.8997 88.3001 92.8997 88.6001 93.1997C88.9001 93.4997 87.7001 93.4997 86.4001 93.1997C85.8001 93.1997 84.2001 93.1997 83.3001 91.9997C82.7001 91.0997 82.7001 90.0997 82.1001 89.7997C81.5001 89.4997 80.2001 89.7997 79.3001 89.7997C78.4001 89.7997 77.4001 88.8997 76.8001 88.2997C76.3001 87.1997 74.4001 85.0997 75.1001 83.7997Z" fill="white"/>
<path fill-rule="evenodd" clip-rule="evenodd" d="M169.5 83.7997C168.6 81.2997 158 83.4997 150.6 83.4997C149.7 83.4997 148.4 83.4997 147.2 83.1997C146.6 82.8997 145 82.5997 143.5 81.9997C142.3 81.3997 141.6 81.0997 140.4 80.4997C140.1 80.4997 139.8 80.4997 139.2 80.1997C138 80.1997 137.3 79.8997 136.7 80.1997C136.4 80.1997 135.8 80.4997 135.2 81.0997C134.9 81.6997 134.9 81.9997 134.6 82.9997C134.6 83.2997 133.1 85.1997 131.8 85.1997C129.6 85.1997 130.3 89.1997 130.3 89.7997C130.3 91.9997 130.3 91.9997 130 97.8997C129.7 103.5 141.5 101.3 143.6 98.4997C145.8 95.6997 146.4 96.2997 146.7 96.5997C147.6 97.4997 148.2 97.7997 149.5 97.7997C150.4 97.7997 152.3 98.0997 152.9 97.1997C153.8 96.8997 156 92.8997 155.7 93.1997C155.4 93.4997 156.6 93.4997 157.9 93.1997C158.5 93.1997 160.1 93.1997 161 91.9997C161.6 91.0997 161.3 90.0997 162.2 89.7997C162.8 89.4997 164.1 89.7997 165 89.7997C165.9 89.7997 166.9 88.8997 167.5 88.2997C168.3 87.1997 169.8 85.0997 169.5 83.7997Z" fill="white"/>
</svg>
